<svg id="Layer_1" data-name="Layer 1" xmlns="http://www.w3.org/2000/svg" viewBox="0 0 229.9 143.53" width="100" height="60">
    <defs>
        <style>.cls-1{fill:#f3f3f3;}</style>
    </defs>
    <path class="cls-1" d="M156.24,81.57h0a27.18,27.18,0,0,1,38.3,0L248.93,136a25.63,25.63,0,0,1,6.33,26.47c-4.48,12.74-15.29,19.12-26.08,19.12a27,27,0,0,1-19.13-7.88l-53.83-53.83a27.17,27.17,0,0,1,0-38.27m-68.47,112H118a.75.75,0,0,0,.52-1.28l-37-37a27.15,27.15,0,0,1,0-38.29h0a27.16,27.16,0,0,1,38.3,0l19.61,19.61s0,0,0,0l53.79,53.78,0,0,2.12,2.12a3.41,3.41,0,0,0,2.41,1h62.48a3.36,3.36,0,0,0,2.23-.82c.86-.74,1.7-1.51,2.51-2.32a50.81,50.81,0,0,0,0-71.77L211.28,64.83a50.69,50.69,0,0,0-85.81,27A50.74,50.74,0,0,0,64.83,172l20.53,20.53A3.41,3.41,0,0,0,87.77,193.53Z" transform="translate(-50 -50)"/>
</svg>
